<mxfile host="app.diagrams.net" agent="Mozilla/5.0 (Windows NT 10.0; Win64; x64) AppleWebKit/537.36 (KHTML, like Gecko) Chrome/132.0.0.0 Safari/537.36" version="26.0.11">
  <diagram name="Page-1" id="3uW-P22x2pT7dxMEGprt">
    <mxGraphModel dx="993" dy="568" grid="1" gridSize="10" guides="1" tooltips="1" connect="1" arrows="1" fold="1" page="1" pageScale="1" pageWidth="850" pageHeight="1100" math="0" shadow="0">
      <root>
        <mxCell id="0" />
        <mxCell id="1" parent="0" />
        <mxCell id="gb9tpDaITwS9XOrCiEI2-64" value="" style="rounded=1;whiteSpace=wrap;html=1;" vertex="1" parent="1">
          <mxGeometry x="140" y="71" width="590" height="420" as="geometry" />
        </mxCell>
        <mxCell id="gb9tpDaITwS9XOrCiEI2-1" value="" style="rounded=1;whiteSpace=wrap;html=1;fillColor=#f5f5f5;fontColor=#333333;strokeColor=#666666;" vertex="1" parent="1">
          <mxGeometry x="10.189999999999998" y="101" width="100" height="350" as="geometry" />
        </mxCell>
        <mxCell id="gb9tpDaITwS9XOrCiEI2-4" value="" style="image;aspect=fixed;html=1;points=[];align=center;fontSize=12;image=img/lib/azure2/general/Folder_Blank.svg;" vertex="1" parent="1">
          <mxGeometry x="41.709999999999994" y="169.35" width="36.96" height="30" as="geometry" />
        </mxCell>
        <mxCell id="gb9tpDaITwS9XOrCiEI2-5" value="" style="image;aspect=fixed;html=1;points=[];align=center;fontSize=12;image=img/lib/azure2/general/Folder_Blank.svg;" vertex="1" parent="1">
          <mxGeometry x="39.75" y="247.35" width="36.96" height="30" as="geometry" />
        </mxCell>
        <mxCell id="gb9tpDaITwS9XOrCiEI2-6" value="&lt;p&gt;&lt;font face=&quot;Comic Sans MS&quot;&gt;Source&lt;/font&gt;&lt;/p&gt;" style="text;html=1;align=center;verticalAlign=middle;whiteSpace=wrap;rounded=1;fillColor=#fff2cc;strokeColor=#d6b656;" vertex="1" parent="1">
          <mxGeometry x="30.18999999999997" y="91" width="60" height="30" as="geometry" />
        </mxCell>
        <mxCell id="gb9tpDaITwS9XOrCiEI2-13" value="" style="image;aspect=fixed;html=1;points=[];align=center;fontSize=12;image=img/lib/azure2/general/Files.svg;" vertex="1" parent="1">
          <mxGeometry x="61.71" y="177.7" width="19.81" height="21.65" as="geometry" />
        </mxCell>
        <mxCell id="gb9tpDaITwS9XOrCiEI2-14" value="" style="image;aspect=fixed;html=1;points=[];align=center;fontSize=12;image=img/lib/azure2/general/Files.svg;" vertex="1" parent="1">
          <mxGeometry x="61.71" y="255.7" width="19.81" height="21.65" as="geometry" />
        </mxCell>
        <mxCell id="gb9tpDaITwS9XOrCiEI2-15" value="&lt;font style=&quot;font-size: 9px;&quot;&gt;CRM&lt;/font&gt;" style="text;html=1;align=center;verticalAlign=middle;whiteSpace=wrap;rounded=1;fillColor=#ffe6cc;strokeColor=#d79b00;" vertex="1" parent="1">
          <mxGeometry x="41.70999999999998" y="199.35" width="35" height="11.65" as="geometry" />
        </mxCell>
        <mxCell id="gb9tpDaITwS9XOrCiEI2-16" value="&lt;font style=&quot;font-size: 9px;&quot;&gt;ERP&lt;/font&gt;" style="text;html=1;align=center;verticalAlign=middle;whiteSpace=wrap;rounded=1;fillColor=#ffe6cc;strokeColor=#d79b00;" vertex="1" parent="1">
          <mxGeometry x="39.74999999999998" y="277.35" width="35" height="11.65" as="geometry" />
        </mxCell>
        <mxCell id="gb9tpDaITwS9XOrCiEI2-17" value="&lt;font style=&quot;font-size: 8px;&quot;&gt;&lt;b&gt;Object Type - &lt;/b&gt;Csv&lt;b&gt; &lt;/b&gt;Files&lt;/font&gt;" style="text;html=1;align=center;verticalAlign=middle;whiteSpace=wrap;rounded=0;" vertex="1" parent="1">
          <mxGeometry x="5.189999999999998" y="321" width="110" height="30" as="geometry" />
        </mxCell>
        <mxCell id="gb9tpDaITwS9XOrCiEI2-18" value="" style="endArrow=none;html=1;rounded=0;" edge="1" parent="1">
          <mxGeometry width="50" height="50" relative="1" as="geometry">
            <mxPoint x="49.21" y="311" as="sourcePoint" />
            <mxPoint x="109.21000000000001" y="311" as="targetPoint" />
            <Array as="points">
              <mxPoint x="9.21" y="311" />
            </Array>
          </mxGeometry>
        </mxCell>
        <mxCell id="gb9tpDaITwS9XOrCiEI2-47" value="&lt;font style=&quot;font-size: 8px;&quot;&gt;&lt;b&gt;Interface -&amp;nbsp;&lt;/b&gt;Files in folder&lt;/font&gt;" style="text;html=1;align=center;verticalAlign=middle;whiteSpace=wrap;rounded=0;" vertex="1" parent="1">
          <mxGeometry x="10.189999999999998" y="351" width="110" height="30" as="geometry" />
        </mxCell>
        <mxCell id="gb9tpDaITwS9XOrCiEI2-48" value="" style="rounded=1;whiteSpace=wrap;html=1;fillColor=#D2B48C;strokeColor=#b85450;" vertex="1" parent="1">
          <mxGeometry x="200" y="108.17" width="100" height="350" as="geometry" />
        </mxCell>
        <mxCell id="gb9tpDaITwS9XOrCiEI2-49" value="&lt;p&gt;&lt;font face=&quot;Comic Sans MS&quot;&gt;Bronze&lt;br&gt;Layer&lt;/font&gt;&lt;/p&gt;" style="text;html=1;align=center;verticalAlign=middle;whiteSpace=wrap;rounded=1;fillColor=#ffcccc;strokeColor=#36393d;" vertex="1" parent="1">
          <mxGeometry x="220" y="101" width="60" height="30" as="geometry" />
        </mxCell>
        <mxCell id="gb9tpDaITwS9XOrCiEI2-50" value="" style="shape=cylinder3;whiteSpace=wrap;html=1;boundedLbl=1;backgroundOutline=1;size=15;fillColor=#fad9d5;strokeColor=#ae4132;" vertex="1" parent="1">
          <mxGeometry x="220" y="166.17000000000002" width="50" height="78" as="geometry" />
        </mxCell>
        <mxCell id="gb9tpDaITwS9XOrCiEI2-52" value="" style="rounded=1;whiteSpace=wrap;html=1;fillColor=#C0C0C0;strokeColor=#36393d;" vertex="1" parent="1">
          <mxGeometry x="390" y="108.17" width="100" height="350" as="geometry" />
        </mxCell>
        <mxCell id="gb9tpDaITwS9XOrCiEI2-53" value="" style="rounded=1;whiteSpace=wrap;html=1;fillColor=#5BFFB4;" vertex="1" parent="1">
          <mxGeometry x="580" y="108.17" width="100" height="350" as="geometry" />
        </mxCell>
        <mxCell id="gb9tpDaITwS9XOrCiEI2-54" value="&lt;p&gt;&lt;font face=&quot;Comic Sans MS&quot;&gt;Silver&lt;br&gt;Layer&lt;/font&gt;&lt;/p&gt;" style="text;html=1;align=center;verticalAlign=middle;whiteSpace=wrap;rounded=1;fillColor=#e1d5e7;strokeColor=#9673a6;" vertex="1" parent="1">
          <mxGeometry x="410" y="101" width="60" height="30" as="geometry" />
        </mxCell>
        <mxCell id="gb9tpDaITwS9XOrCiEI2-55" value="&lt;p&gt;&lt;font face=&quot;Comic Sans MS&quot;&gt;Gold&lt;br&gt;Layer&lt;/font&gt;&lt;/p&gt;" style="text;html=1;align=center;verticalAlign=middle;whiteSpace=wrap;rounded=1;fillColor=#fff2cc;strokeColor=#d6b656;" vertex="1" parent="1">
          <mxGeometry x="600" y="101" width="60" height="30" as="geometry" />
        </mxCell>
        <mxCell id="gb9tpDaITwS9XOrCiEI2-56" value="" style="shape=cylinder3;whiteSpace=wrap;html=1;boundedLbl=1;backgroundOutline=1;size=15;fillColor=#fad7ac;strokeColor=#b46504;" vertex="1" parent="1">
          <mxGeometry x="600" y="169.35" width="50" height="78" as="geometry" />
        </mxCell>
        <mxCell id="gb9tpDaITwS9XOrCiEI2-57" value="" style="shape=cylinder3;whiteSpace=wrap;html=1;boundedLbl=1;backgroundOutline=1;size=15;fillColor=#fad9d5;strokeColor=#ae4132;" vertex="1" parent="1">
          <mxGeometry x="415" y="169.35" width="50" height="78" as="geometry" />
        </mxCell>
        <mxCell id="gb9tpDaITwS9XOrCiEI2-61" value="" style="shape=flexArrow;endArrow=classic;html=1;rounded=0;entryX=0.007;entryY=0.417;entryDx=0;entryDy=0;entryPerimeter=0;exitX=1.013;exitY=0.417;exitDx=0;exitDy=0;exitPerimeter=0;startSize=0;endSize=6.11;targetPerimeterSpacing=0;shadow=0;fillColor=#fff2cc;strokeWidth=1;strokeColor=#d6b656;width=7;endWidth=12;" edge="1" parent="1">
          <mxGeometry width="50" height="50" relative="1" as="geometry">
            <mxPoint x="489.9999999999999" y="249.3500000000001" as="sourcePoint" />
            <mxPoint x="579.4" y="249.3500000000001" as="targetPoint" />
          </mxGeometry>
        </mxCell>
        <mxCell id="gb9tpDaITwS9XOrCiEI2-62" value="" style="shape=flexArrow;endArrow=classic;html=1;rounded=0;entryX=0.007;entryY=0.417;entryDx=0;entryDy=0;entryPerimeter=0;exitX=1.013;exitY=0.417;exitDx=0;exitDy=0;exitPerimeter=0;startSize=0;endSize=6.11;targetPerimeterSpacing=0;shadow=0;fillColor=#f8cecc;strokeWidth=1;strokeColor=#b85450;width=7;endWidth=12;" edge="1" parent="1">
          <mxGeometry width="50" height="50" relative="1" as="geometry">
            <mxPoint x="299.9999999999999" y="249.4400000000001" as="sourcePoint" />
            <mxPoint x="389.4" y="249.4400000000001" as="targetPoint" />
          </mxGeometry>
        </mxCell>
        <mxCell id="gb9tpDaITwS9XOrCiEI2-63" value="" style="shape=flexArrow;endArrow=classic;html=1;rounded=0;exitX=1;exitY=0.39;exitDx=0;exitDy=0;exitPerimeter=0;startSize=0;endSize=6.11;targetPerimeterSpacing=0;shadow=0;strokeWidth=1;width=7;endWidth=12;fillColor=#B9FEFF;" edge="1" parent="1">
          <mxGeometry width="50" height="50" relative="1" as="geometry">
            <mxPoint x="110.19000000000005" y="247.35" as="sourcePoint" />
            <mxPoint x="200" y="247.85" as="targetPoint" />
          </mxGeometry>
        </mxCell>
        <mxCell id="gb9tpDaITwS9XOrCiEI2-65" value="Data WareHouse" style="text;html=1;align=center;verticalAlign=middle;whiteSpace=wrap;rounded=1;fillColor=#FFE8E9;" vertex="1" parent="1">
          <mxGeometry x="360" y="61" width="160" height="30" as="geometry" />
        </mxCell>
        <mxCell id="gb9tpDaITwS9XOrCiEI2-73" value="" style="rounded=1;whiteSpace=wrap;html=1;fillColor=#b0e3e6;strokeColor=#0e8088;" vertex="1" parent="1">
          <mxGeometry x="740" y="108.17" width="100" height="350" as="geometry" />
        </mxCell>
        <mxCell id="gb9tpDaITwS9XOrCiEI2-74" value="&lt;p&gt;&lt;font face=&quot;Comic Sans MS&quot;&gt;Consume&lt;/font&gt;&lt;/p&gt;" style="text;html=1;align=center;verticalAlign=middle;whiteSpace=wrap;rounded=1;fillColor=#fff2cc;gradientColor=#ffd966;strokeColor=#d6b656;" vertex="1" parent="1">
          <mxGeometry x="759.9999999999999" y="91" width="60" height="30" as="geometry" />
        </mxCell>
        <mxCell id="gb9tpDaITwS9XOrCiEI2-80" value="&lt;font style=&quot;font-size: 8px;&quot;&gt;&lt;b&gt;Object Type - &lt;/b&gt;Tables&lt;/font&gt;" style="text;html=1;align=left;verticalAlign=middle;whiteSpace=wrap;rounded=0;" vertex="1" parent="1">
          <mxGeometry x="200" y="257.35" width="110" height="20" as="geometry" />
        </mxCell>
        <mxCell id="gb9tpDaITwS9XOrCiEI2-81" value="&lt;div style=&quot;&quot;&gt;&lt;b style=&quot;background-color: transparent; color: light-dark(rgb(0, 0, 0), rgb(255, 255, 255)); font-size: 8px;&quot;&gt;Load :-&lt;/b&gt;&lt;/div&gt;&lt;div style=&quot;&quot;&gt;&lt;span style=&quot;background-color: transparent; color: light-dark(rgb(0, 0, 0), rgb(255, 255, 255)); font-size: 8px;&quot;&gt;&amp;nbsp; &amp;nbsp;-Batch Processing&lt;/span&gt;&lt;/div&gt;&lt;div style=&quot;&quot;&gt;&lt;span style=&quot;background-color: transparent; color: light-dark(rgb(0, 0, 0), rgb(255, 255, 255)); font-size: 8px;&quot;&gt;&amp;nbsp; &amp;nbsp;-Full Load&lt;/span&gt;&lt;/div&gt;&lt;div style=&quot;&quot;&gt;&lt;span style=&quot;background-color: transparent; color: light-dark(rgb(0, 0, 0), rgb(255, 255, 255)); font-size: 8px;&quot;&gt;&amp;nbsp; &amp;nbsp;-Truncate &amp;amp; Insert&lt;/span&gt;&lt;/div&gt;" style="text;html=1;align=left;verticalAlign=middle;whiteSpace=wrap;rounded=0;" vertex="1" parent="1">
          <mxGeometry x="200" y="279" width="85" height="50" as="geometry" />
        </mxCell>
        <mxCell id="gb9tpDaITwS9XOrCiEI2-83" value="&lt;span style=&quot;font-size: 8px;&quot;&gt;&lt;b&gt;No Transformation&lt;/b&gt;&lt;/span&gt;" style="text;html=1;align=left;verticalAlign=middle;whiteSpace=wrap;rounded=0;" vertex="1" parent="1">
          <mxGeometry x="200" y="328.5" width="81" height="30" as="geometry" />
        </mxCell>
        <mxCell id="gb9tpDaITwS9XOrCiEI2-84" value="&lt;span style=&quot;font-size: 8px;&quot;&gt;&lt;b&gt;Data Model :-&amp;nbsp; &amp;nbsp; &amp;nbsp; &amp;nbsp; &amp;nbsp; &amp;nbsp; &amp;nbsp; &amp;nbsp; -&lt;/b&gt;Name(as-is)&lt;/span&gt;" style="text;html=1;align=left;verticalAlign=middle;whiteSpace=wrap;rounded=0;" vertex="1" parent="1">
          <mxGeometry x="200" y="358.5" width="81" height="30" as="geometry" />
        </mxCell>
        <mxCell id="gb9tpDaITwS9XOrCiEI2-86" value="&lt;font style=&quot;font-size: 8px;&quot;&gt;&lt;b&gt;Object Type - &lt;/b&gt;Tables&lt;/font&gt;" style="text;html=1;align=left;verticalAlign=middle;whiteSpace=wrap;rounded=0;" vertex="1" parent="1">
          <mxGeometry x="391" y="257.35" width="110" height="20" as="geometry" />
        </mxCell>
        <mxCell id="gb9tpDaITwS9XOrCiEI2-87" value="&lt;div style=&quot;&quot;&gt;&lt;b style=&quot;background-color: transparent; color: light-dark(rgb(0, 0, 0), rgb(255, 255, 255)); font-size: 8px;&quot;&gt;Load :-&amp;nbsp;&lt;/b&gt;&lt;/div&gt;&lt;div style=&quot;&quot;&gt;&lt;span style=&quot;background-color: transparent; color: light-dark(rgb(0, 0, 0), rgb(255, 255, 255)); font-size: 8px;&quot;&gt;&amp;nbsp; &amp;nbsp;-Batch Processing&lt;/span&gt;&lt;/div&gt;&lt;div style=&quot;&quot;&gt;&lt;span style=&quot;background-color: transparent; color: light-dark(rgb(0, 0, 0), rgb(255, 255, 255)); font-size: 8px;&quot;&gt;&amp;nbsp; &amp;nbsp;-Full Load&lt;/span&gt;&lt;/div&gt;&lt;div style=&quot;&quot;&gt;&lt;span style=&quot;background-color: transparent; color: light-dark(rgb(0, 0, 0), rgb(255, 255, 255)); font-size: 8px;&quot;&gt;&amp;nbsp; &amp;nbsp;-Truncate &amp;amp; Insert&lt;/span&gt;&lt;/div&gt;" style="text;html=1;align=left;verticalAlign=middle;whiteSpace=wrap;rounded=0;" vertex="1" parent="1">
          <mxGeometry x="391" y="279" width="85" height="50" as="geometry" />
        </mxCell>
        <mxCell id="gb9tpDaITwS9XOrCiEI2-88" value="&lt;div style=&quot;&quot;&gt;&lt;b style=&quot;font-size: 8px; background-color: transparent; color: light-dark(rgb(0, 0, 0), rgb(255, 255, 255));&quot;&gt;Transformation :-&lt;/b&gt;&lt;/div&gt;&lt;div style=&quot;&quot;&gt;&lt;b style=&quot;font-size: 8px; background-color: transparent; color: light-dark(rgb(0, 0, 0), rgb(255, 255, 255));&quot;&gt;&amp;nbsp; &amp;nbsp;- &lt;/b&gt;&lt;span style=&quot;background-color: transparent; color: light-dark(rgb(0, 0, 0), rgb(255, 255, 255));&quot;&gt;&lt;font style=&quot;font-size: 7px;&quot;&gt;Data Cleaning&lt;/font&gt;&lt;/span&gt;&lt;/div&gt;&lt;div style=&quot;&quot;&gt;&lt;span style=&quot;font-size: 8px; background-color: transparent; color: light-dark(rgb(0, 0, 0), rgb(255, 255, 255));&quot;&gt;&amp;nbsp; &amp;nbsp;-&lt;/span&gt;&lt;span style=&quot;background-color: transparent; color: light-dark(rgb(0, 0, 0), rgb(255, 255, 255));&quot;&gt;&lt;font style=&quot;font-size: 7px;&quot;&gt; Data Normatlization&lt;/font&gt;&lt;/span&gt;&lt;/div&gt;&lt;div style=&quot;&quot;&gt;&lt;span style=&quot;background-color: transparent; color: light-dark(rgb(0, 0, 0), rgb(255, 255, 255));&quot;&gt;&lt;font style=&quot;font-size: 7px;&quot;&gt;&amp;nbsp; &amp;nbsp;- Data Standrization&lt;/font&gt;&lt;/span&gt;&lt;/div&gt;&lt;div style=&quot;&quot;&gt;&lt;span style=&quot;background-color: transparent; color: light-dark(rgb(0, 0, 0), rgb(255, 255, 255));&quot;&gt;&lt;font style=&quot;font-size: 7px;&quot;&gt;&amp;nbsp; &amp;nbsp;- Deriverd Columns&lt;/font&gt;&lt;/span&gt;&lt;/div&gt;&lt;div style=&quot;&quot;&gt;&lt;span style=&quot;background-color: transparent; color: light-dark(rgb(0, 0, 0), rgb(255, 255, 255));&quot;&gt;&lt;font style=&quot;font-size: 7px;&quot;&gt;&amp;nbsp; &amp;nbsp;- Data Enrichment.&lt;/font&gt;&lt;/span&gt;&lt;/div&gt;" style="text;html=1;align=left;verticalAlign=middle;whiteSpace=wrap;rounded=0;" vertex="1" parent="1">
          <mxGeometry x="390" y="329" width="81" height="89" as="geometry" />
        </mxCell>
        <mxCell id="gb9tpDaITwS9XOrCiEI2-91" value="" style="endArrow=none;html=1;rounded=0;" edge="1" parent="1">
          <mxGeometry width="50" height="50" relative="1" as="geometry">
            <mxPoint x="240" y="255.7" as="sourcePoint" />
            <mxPoint x="300" y="255.7" as="targetPoint" />
            <Array as="points">
              <mxPoint x="200" y="255.7" />
            </Array>
          </mxGeometry>
        </mxCell>
        <mxCell id="gb9tpDaITwS9XOrCiEI2-92" value="" style="endArrow=none;html=1;rounded=0;" edge="1" parent="1">
          <mxGeometry width="50" height="50" relative="1" as="geometry">
            <mxPoint x="620" y="255.7" as="sourcePoint" />
            <mxPoint x="680" y="255.7" as="targetPoint" />
            <Array as="points">
              <mxPoint x="580" y="255.7" />
            </Array>
          </mxGeometry>
        </mxCell>
        <mxCell id="gb9tpDaITwS9XOrCiEI2-93" value="" style="endArrow=none;html=1;rounded=0;" edge="1" parent="1">
          <mxGeometry width="50" height="50" relative="1" as="geometry">
            <mxPoint x="430" y="255.7" as="sourcePoint" />
            <mxPoint x="490" y="255.7" as="targetPoint" />
            <Array as="points">
              <mxPoint x="390" y="255.7" />
            </Array>
          </mxGeometry>
        </mxCell>
        <mxCell id="gb9tpDaITwS9XOrCiEI2-95" value="&lt;span style=&quot;font-size: 8px;&quot;&gt;&lt;b&gt;Data Model :-&amp;nbsp; &amp;nbsp; &amp;nbsp; &amp;nbsp; &amp;nbsp; &amp;nbsp; &amp;nbsp; &amp;nbsp; -&lt;/b&gt;Name(as-is)&lt;/span&gt;" style="text;html=1;align=left;verticalAlign=middle;whiteSpace=wrap;rounded=0;" vertex="1" parent="1">
          <mxGeometry x="393" y="418" width="81" height="30" as="geometry" />
        </mxCell>
        <mxCell id="gb9tpDaITwS9XOrCiEI2-96" value="&lt;div style=&quot;&quot;&gt;&lt;b style=&quot;font-size: 8px; background-color: transparent; color: light-dark(rgb(0, 0, 0), rgb(255, 255, 255));&quot;&gt;Object Type - &lt;/b&gt;&lt;span style=&quot;font-size: 8px; background-color: transparent; color: light-dark(rgb(0, 0, 0), rgb(255, 255, 255));&quot;&gt;Views&lt;/span&gt;&lt;/div&gt;" style="text;html=1;align=left;verticalAlign=middle;whiteSpace=wrap;rounded=0;" vertex="1" parent="1">
          <mxGeometry x="581" y="255.7" width="110" height="20" as="geometry" />
        </mxCell>
        <mxCell id="gb9tpDaITwS9XOrCiEI2-99" value="&lt;div style=&quot;&quot;&gt;&lt;b style=&quot;background-color: transparent; color: light-dark(rgb(0, 0, 0), rgb(255, 255, 255)); font-size: 8px;&quot;&gt;No Load&amp;nbsp;&lt;/b&gt;&lt;/div&gt;" style="text;html=1;align=left;verticalAlign=middle;whiteSpace=wrap;rounded=0;" vertex="1" parent="1">
          <mxGeometry x="582" y="273" width="85" height="22" as="geometry" />
        </mxCell>
        <mxCell id="gb9tpDaITwS9XOrCiEI2-100" value="&lt;div style=&quot;&quot;&gt;&lt;b style=&quot;font-size: 8px; background-color: transparent; color: light-dark(rgb(0, 0, 0), rgb(255, 255, 255));&quot;&gt;Transformation :-&lt;/b&gt;&lt;/div&gt;&lt;div style=&quot;&quot;&gt;&lt;b style=&quot;font-size: 8px; background-color: transparent; color: light-dark(rgb(0, 0, 0), rgb(255, 255, 255));&quot;&gt;&amp;nbsp; &amp;nbsp;- &lt;/b&gt;&lt;span style=&quot;background-color: transparent; color: light-dark(rgb(0, 0, 0), rgb(255, 255, 255));&quot;&gt;&lt;font style=&quot;font-size: 7px;&quot;&gt;Data Integration&lt;/font&gt;&lt;/span&gt;&lt;/div&gt;&lt;div style=&quot;&quot;&gt;&lt;span style=&quot;font-size: 8px; background-color: transparent; color: light-dark(rgb(0, 0, 0), rgb(255, 255, 255));&quot;&gt;&amp;nbsp; &amp;nbsp;-&lt;/span&gt;&lt;span style=&quot;background-color: transparent; color: light-dark(rgb(0, 0, 0), rgb(255, 255, 255)); font-size: 7px;&quot;&gt;&amp;nbsp;Agreegation&lt;/span&gt;&lt;/div&gt;&lt;div style=&quot;&quot;&gt;&lt;span style=&quot;background-color: transparent; color: light-dark(rgb(0, 0, 0), rgb(255, 255, 255));&quot;&gt;&lt;font style=&quot;font-size: 7px;&quot;&gt;&amp;nbsp; &amp;nbsp;- Buisness Logic&lt;/font&gt;&lt;/span&gt;&lt;/div&gt;" style="text;html=1;align=left;verticalAlign=middle;whiteSpace=wrap;rounded=0;" vertex="1" parent="1">
          <mxGeometry x="582" y="291.5" width="81" height="69.5" as="geometry" />
        </mxCell>
        <mxCell id="gb9tpDaITwS9XOrCiEI2-102" value="&lt;span style=&quot;font-size: 8px;&quot;&gt;&lt;b&gt;Data Model :-&amp;nbsp;&lt;/b&gt;&lt;/span&gt;&lt;div&gt;&lt;span style=&quot;font-size: 8px;&quot;&gt;&lt;b&gt;&amp;nbsp; &amp;nbsp; &amp;nbsp;-&amp;nbsp;&lt;/b&gt;Star Schema&lt;/span&gt;&lt;div&gt;&lt;span style=&quot;font-size: 8px;&quot;&gt;&amp;nbsp; &amp;nbsp; &amp;nbsp;- Name Normatization&lt;/span&gt;&lt;/div&gt;&lt;/div&gt;" style="text;html=1;align=left;verticalAlign=middle;whiteSpace=wrap;rounded=0;" vertex="1" parent="1">
          <mxGeometry x="581" y="358.5" width="100" height="52.5" as="geometry" />
        </mxCell>
        <mxCell id="gb9tpDaITwS9XOrCiEI2-105" value="" style="rounded=1;whiteSpace=wrap;html=1;fillColor=#f8cecc;gradientColor=#ea6b66;strokeColor=#b85450;" vertex="1" parent="1">
          <mxGeometry x="744.99" y="171" width="90" height="90" as="geometry" />
        </mxCell>
        <mxCell id="gb9tpDaITwS9XOrCiEI2-103" value="&lt;font face=&quot;Comic Sans MS&quot;&gt;Bi &amp;amp; Repoting&lt;/font&gt;" style="text;html=1;align=center;verticalAlign=middle;whiteSpace=wrap;rounded=0;" vertex="1" parent="1">
          <mxGeometry x="759.99" y="211.35" width="60" height="36" as="geometry" />
        </mxCell>
        <mxCell id="gb9tpDaITwS9XOrCiEI2-75" value="" style="image;aspect=fixed;html=1;points=[];align=center;fontSize=12;image=img/lib/azure2/analytics/Power_BI_Embedded.svg;" vertex="1" parent="1">
          <mxGeometry x="778.81" y="177.7" width="22.37" height="29.83" as="geometry" />
        </mxCell>
        <mxCell id="gb9tpDaITwS9XOrCiEI2-107" value="" style="rounded=1;whiteSpace=wrap;html=1;fillColor=#f8cecc;gradientColor=#ea6b66;strokeColor=#b85450;" vertex="1" parent="1">
          <mxGeometry x="740" y="288.5" width="100" height="92.5" as="geometry" />
        </mxCell>
        <mxCell id="gb9tpDaITwS9XOrCiEI2-76" value="" style="outlineConnect=0;dashed=0;verticalLabelPosition=bottom;verticalAlign=top;align=center;html=1;shape=mxgraph.aws3.machine_learning;fillColor=#2E73B8;gradientColor=none;" vertex="1" parent="1">
          <mxGeometry x="770.87" y="302.25" width="38.25" height="40" as="geometry" />
        </mxCell>
        <mxCell id="gb9tpDaITwS9XOrCiEI2-104" value="&lt;font face=&quot;Comic Sans MS&quot;&gt;Machine Learning&lt;/font&gt;" style="text;html=1;align=left;verticalAlign=middle;whiteSpace=wrap;rounded=0;" vertex="1" parent="1">
          <mxGeometry x="739.99" y="329" width="100" height="50" as="geometry" />
        </mxCell>
        <mxCell id="gb9tpDaITwS9XOrCiEI2-111" value="&lt;b&gt;High Level Architecture&lt;/b&gt;" style="text;html=1;align=center;verticalAlign=middle;whiteSpace=wrap;rounded=1;fillColor=#f5f5f5;strokeColor=#666666;gradientColor=#b3b3b3;" vertex="1" parent="1">
          <mxGeometry x="130" y="20" width="600" height="30" as="geometry" />
        </mxCell>
        <mxCell id="gb9tpDaITwS9XOrCiEI2-112" value="" style="image;aspect=fixed;html=1;points=[];align=center;fontSize=12;image=img/lib/azure2/databases/SQL_Server.svg;" vertex="1" parent="1">
          <mxGeometry x="140" y="21" width="30" height="30" as="geometry" />
        </mxCell>
      </root>
    </mxGraphModel>
  </diagram>
</mxfile>
